<svg width="20" height="20" viewBox="0 0 20 20" fill="none" xmlns="http://www.w3.org/2000/svg">
<path fill-rule="evenodd" clip-rule="evenodd" d="M19.8988 17.875C18.4709 15.4065 16.2706 13.6365 13.7028 12.7975C16.3136 11.2433 17.5642 8.13637 16.7582 5.20688C15.9522 2.2774 13.2883 0.247437 10.25 0.247437C7.21168 0.247437 4.5478 2.2774 3.74183 5.20688C2.93586 8.13637 4.18646 11.2433 6.7972 12.7975C4.22939 13.6356 2.02907 15.4056 0.60126 17.875C0.458713 18.1074 0.453537 18.3989 0.587741 18.6362C0.721945 18.8736 0.974385 19.0194 1.24703 19.0171C1.51968 19.0147 1.76958 18.8646 1.8997 18.625C3.66595 15.5725 6.78782 13.75 10.25 13.75C13.7122 13.75 16.8341 15.5725 18.6003 18.625C18.7304 18.8646 18.9803 19.0147 19.253 19.0171C19.5256 19.0194 19.7781 18.8736 19.9123 18.6362C20.0465 18.3989 20.0413 18.1074 19.8988 17.875Z" fill="white"/>
</svg>
