<svg width="20" height="20" viewBox="0 0 20 20" fill="none" xmlns="http://www.w3.org/2000/svg">
<path fill-rule="evenodd" clip-rule="evenodd" d="M14 8.5C14 11.3995 11.6495 13.75 8.75 13.75C5.8505 13.75 3.5 11.3995 3.5 8.5C3.5 5.6005 5.8505 3.25 8.75 3.25C11.6495 3.25 14 5.6005 14 8.5ZM19.7806 19.5306C19.6399 19.6715 19.4491 19.7506 19.25 19.7506C19.0509 19.7506 18.8601 19.6715 18.7194 19.5306L14.0262 14.8366C10.6358 17.6572 5.62647 17.3124 2.65446 14.0538C-0.317553 10.7952 -0.201056 5.77538 2.91892 2.65816C6.0389 -0.459059 11.0588 -0.571119 14.3148 2.40377C17.5708 5.37866 17.9111 10.3883 15.0875 13.7762L19.7806 18.4694C19.9215 18.6101 20.0006 18.8009 20.0006 19C20.0006 19.1991 19.9215 19.3899 19.7806 19.5306ZM8.75 15.25C12.4779 15.25 15.5 12.2279 15.5 8.5C15.5 4.77208 12.4779 1.75 8.75 1.75C5.02208 1.75 2 4.77208 2 8.5C2.00413 12.2262 5.02379 15.2459 8.75 15.25Z" fill="white"/>
</svg>
