<svg width="22" height="16" viewBox="0 0 22 16" fill="none" xmlns="http://www.w3.org/2000/svg">
<path fill-rule="evenodd" clip-rule="evenodd" d="M20.0491 5.795C20.7476 5.65288 21.2496 5.03878 21.25 4.32594V2C21.25 1.17157 20.5784 0.5 19.75 0.5H1.75C0.921576 0.5 0.250003 1.17157 0.250003 2V4.32594C0.250394 5.03878 0.752413 5.65288 1.45094 5.795C2.49526 6.01157 3.24406 6.93158 3.24406 7.99813C3.24406 9.06467 2.49526 9.98468 1.45094 10.2013C0.751031 10.3437 0.248609 10.9598 0.250003 11.6741V14C0.250003 14.8284 0.921576 15.5 1.75 15.5H19.75C20.5784 15.5 21.25 14.8284 21.25 14V11.6741C21.2496 10.9612 20.7476 10.3471 20.0491 10.205C19.0047 9.98843 18.2559 9.06842 18.2559 8.00187C18.2559 6.93533 19.0047 6.01532 20.0491 5.79875V5.795ZM1.75 11.675C3.49666 11.3192 4.75146 9.783 4.75146 8.00047C4.75146 6.21794 3.49666 4.68175 1.75 4.32594V2H7V14H1.75V11.675Z" fill="white"/>
</svg>
